<?xml version="1.0" standalone="no"?>
<!DOCTYPE svg PUBLIC "-//W3C//DTD SVG 20010904//EN"
 "http://www.w3.org/TR/2001/REC-SVG-20010904/DTD/svg10.dtd">
<svg version="1.0" xmlns="http://www.w3.org/2000/svg"
 width="840.000000pt" height="859.000000pt" viewBox="0 0 840.000000 859.000000"
 preserveAspectRatio="xMidYMid meet">

<g transform="translate(0.000000,859.000000) scale(0.100000,-0.100000)"
fill="#000000" stroke="none">
<path d="M4150 8270 c-8 -11 -21 -22 -30 -25 -42 -13 -44 -40 -44 -659 -1
-463 2 -590 12 -593 6 -3 12 -9 12 -14 0 -20 50 -59 74 -59 14 0 28 -4 31 -10
3 -5 19 -10 36 -10 16 0 29 5 29 10 0 6 11 10 25 10 14 0 25 5 25 10 0 6 5 10
11 10 16 0 36 24 53 65 14 33 16 111 16 606 0 373 -3 569 -10 569 -5 0 -10 6
-10 13 0 17 -48 71 -77 86 -12 6 -48 11 -80 11 -47 0 -61 -4 -73 -20z"/>
<path d="M1853 7748 c-33 -17 -46 -32 -62 -71 -12 -27 -21 -57 -21 -66 0 -20
20 -75 43 -120 9 -19 17 -40 17 -48 0 -7 5 -13 10 -13 6 0 10 -9 10 -20 0 -11
5 -20 10 -20 6 0 10 -7 10 -15 0 -8 4 -23 9 -33 6 -9 18 -36 27 -59 10 -24 21
-43 26 -43 4 0 8 -6 8 -13 0 -18 24 -67 33 -67 4 0 7 -9 7 -20 0 -11 5 -20 10
-20 6 0 10 -11 10 -25 0 -14 5 -25 10 -25 6 0 10 -5 10 -11 0 -7 20 -52 45
-101 25 -49 45 -96 45 -104 0 -8 5 -14 10 -14 6 0 10 -11 10 -25 0 -14 5 -25
10 -25 6 0 10 -9 10 -20 0 -11 5 -20 10 -20 6 0 10 -5 10 -11 0 -23 92 -193
113 -211 12 -10 27 -22 34 -28 7 -5 42 -10 78 -10 60 0 68 3 98 33 69 67 81
136 37 222 -11 22 -20 45 -20 52 0 7 -4 13 -10 13 -5 0 -10 9 -10 20 0 11 -4
20 -10 20 -5 0 -10 11 -10 25 0 14 -4 25 -10 25 -5 0 -10 9 -10 19 0 11 -4 21
-8 23 -11 4 -82 155 -82 173 0 8 -4 15 -10 15 -5 0 -10 9 -10 20 0 11 -4 20
-10 20 -5 0 -10 11 -10 25 0 14 -4 25 -10 25 -5 0 -10 9 -10 20 0 11 -3 20 -7
20 -5 0 -21 29 -38 65 -16 36 -33 65 -37 65 -5 0 -8 9 -8 20 0 11 -4 20 -10
20 -5 0 -10 11 -10 25 0 14 -4 25 -10 25 -5 0 -10 9 -10 20 0 11 -4 20 -10 20
-5 0 -10 9 -10 20 0 11 -4 20 -10 20 -5 0 -10 6 -10 13 0 6 -16 44 -36 82 -30
57 -45 74 -80 93 -54 27 -106 27 -161 0z"/>
<path d="M6385 7756 c-46 -17 -105 -85 -105 -121 0 -8 -4 -15 -10 -15 -5 0
-10 -9 -10 -20 0 -11 -4 -20 -10 -20 -5 0 -10 -9 -10 -20 0 -11 -4 -20 -10
-20 -5 0 -10 -8 -10 -19 0 -10 -20 -58 -45 -107 -25 -49 -45 -95 -45 -101 0
-7 -4 -13 -10 -13 -5 0 -10 -9 -10 -20 0 -11 -4 -20 -10 -20 -5 0 -10 -9 -10
-20 0 -11 -4 -20 -10 -20 -5 0 -10 -9 -10 -19 0 -11 -4 -23 -10 -26 -5 -3 -10
-15 -10 -26 0 -10 -4 -19 -8 -19 -7 0 -17 -20 -55 -112 -7 -16 -15 -28 -19
-28 -5 0 -8 -11 -8 -25 0 -14 -4 -25 -10 -25 -5 0 -10 -9 -10 -20 0 -11 -4
-20 -10 -20 -5 0 -10 -9 -10 -20 0 -11 -4 -20 -10 -20 -5 0 -10 -6 -10 -12 0
-7 -16 -44 -35 -81 -42 -82 -46 -143 -14 -196 25 -41 44 -61 58 -61 6 0 11 -4
11 -10 0 -6 30 -10 70 -10 40 0 70 4 70 10 0 6 5 10 10 10 14 0 60 46 60 60 0
5 5 10 10 10 6 0 10 8 10 18 0 11 9 29 19 41 11 13 23 36 26 52 4 16 11 31 16
34 5 4 9 15 9 26 0 10 5 19 10 19 6 0 10 9 10 20 0 11 5 20 10 20 6 0 10 9 10
20 0 11 5 20 10 20 6 0 10 9 10 19 0 11 5 23 10 26 6 3 10 15 10 25 0 10 4 20
8 22 4 2 26 40 47 86 22 45 43 82 47 82 5 0 8 11 8 25 0 14 5 25 10 25 6 0 10
6 10 13 0 8 13 40 29 73 15 32 31 69 35 82 4 12 12 22 17 22 5 0 9 9 9 20 0
11 5 20 10 20 6 0 10 9 10 20 0 11 5 20 10 20 6 0 10 11 10 25 0 14 5 25 10
25 6 0 10 9 10 20 0 11 3 20 8 20 9 0 32 72 32 99 0 11 -4 23 -10 26 -5 3 -10
13 -10 21 0 19 -57 76 -93 92 -33 14 -81 14 -122 -2z"/>
<path d="M4065 6460 c-22 -5 -76 -9 -119 -9 -86 -1 -174 -14 -247 -37 -26 -8
-65 -14 -87 -14 -23 0 -44 -4 -47 -10 -3 -5 -28 -10 -56 -10 -27 0 -49 -4 -49
-10 0 -5 -20 -10 -45 -10 -25 0 -45 -4 -45 -10 0 -5 -15 -10 -34 -10 -19 0
-36 -3 -38 -7 -1 -5 -41 -21 -88 -37 -47 -16 -89 -32 -95 -36 -5 -3 -29 -12
-52 -20 -24 -7 -43 -17 -43 -22 0 -4 -13 -8 -30 -8 -16 0 -30 -4 -30 -10 0 -5
-9 -10 -20 -10 -11 0 -20 -4 -20 -10 0 -5 -9 -10 -21 -10 -11 0 -37 -11 -57
-25 -20 -14 -45 -25 -54 -25 -10 0 -18 -4 -18 -9 0 -5 -16 -15 -35 -22 -19 -7
-35 -17 -35 -21 0 -4 -9 -8 -20 -8 -11 0 -20 -4 -20 -10 0 -5 -8 -10 -18 -10
-10 0 -24 -9 -32 -20 -8 -11 -22 -20 -32 -20 -10 0 -18 -3 -18 -8 0 -4 -16
-16 -35 -26 -19 -11 -35 -23 -35 -28 0 -4 -8 -8 -18 -8 -10 0 -24 -9 -32 -20
-8 -11 -20 -20 -27 -20 -7 0 -13 -4 -13 -10 0 -5 -5 -10 -11 -10 -6 0 -16 -6
-23 -12 -7 -7 -25 -22 -41 -33 -15 -11 -38 -30 -51 -42 -13 -13 -26 -23 -29
-23 -6 0 -31 -22 -100 -87 -24 -24 -47 -43 -50 -43 -8 0 -135 -130 -160 -163
-11 -15 -24 -27 -28 -27 -12 0 -37 -27 -37 -39 0 -6 -4 -11 -10 -11 -5 0 -10
-6 -10 -13 0 -7 -9 -19 -20 -27 -11 -8 -20 -18 -20 -23 0 -4 -10 -18 -23 -31
-37 -38 -67 -76 -67 -84 0 -4 -9 -14 -20 -22 -11 -8 -20 -21 -20 -29 0 -7 -8
-21 -18 -30 -10 -9 -32 -38 -47 -66 -16 -27 -33 -51 -37 -53 -4 -2 -8 -11 -8
-21 0 -9 -9 -23 -20 -31 -11 -8 -20 -22 -20 -31 0 -10 -3 -19 -7 -21 -5 -1
-21 -31 -37 -65 -16 -35 -33 -63 -36 -63 -3 0 -12 -16 -20 -35 -8 -19 -17 -35
-22 -35 -4 0 -8 -13 -8 -30 0 -16 -4 -30 -10 -30 -5 0 -10 -9 -10 -20 0 -11
-4 -20 -10 -20 -5 0 -10 -7 -10 -15 0 -8 -4 -23 -9 -33 -11 -20 -54 -132 -72
-184 -7 -21 -17 -38 -21 -38 -4 0 -8 -18 -8 -40 0 -22 -4 -40 -10 -40 -5 0
-10 -18 -10 -40 0 -22 -4 -40 -10 -40 -5 0 -10 -15 -10 -34 0 -19 -4 -38 -10
-41 -5 -3 -10 -19 -10 -36 0 -16 -4 -37 -9 -47 -9 -18 -27 -116 -43 -237 -5
-38 -12 -130 -14 -202 -3 -74 -9 -133 -15 -133 -5 0 -9 -38 -9 -85 0 -50 4
-85 10 -85 6 0 10 -43 10 -109 0 -63 4 -112 10 -116 6 -3 10 -34 10 -68 0 -34
7 -87 15 -117 8 -30 15 -69 15 -85 0 -17 9 -55 20 -85 11 -30 20 -67 20 -82 0
-16 5 -28 10 -28 6 0 10 -18 10 -40 0 -22 5 -40 10 -40 6 0 10 -15 10 -34 0
-19 5 -38 10 -41 6 -3 10 -17 10 -31 0 -13 3 -24 8 -24 4 0 16 -29 27 -65 10
-36 23 -65 27 -65 4 0 8 -8 8 -18 0 -22 22 -72 33 -72 4 0 7 -11 7 -24 0 -14
4 -28 10 -31 5 -3 10 -15 10 -26 0 -10 5 -19 10 -19 6 0 10 -8 10 -17 0 -10
11 -31 25 -47 14 -16 25 -37 25 -48 0 -10 3 -18 8 -18 8 0 32 -49 32 -67 0 -7
5 -13 10 -13 6 0 10 -6 10 -13 0 -7 9 -19 20 -27 11 -8 20 -22 20 -32 0 -10 3
-18 8 -18 4 0 16 -18 26 -41 11 -22 32 -53 48 -69 15 -17 28 -37 28 -45 0 -8
5 -15 10 -15 6 0 10 -5 10 -10 0 -6 10 -22 22 -34 13 -13 33 -37 45 -52 12
-16 31 -39 42 -51 12 -12 21 -27 21 -33 0 -5 5 -10 10 -10 6 0 10 -5 10 -10 0
-16 308 -320 324 -320 8 0 18 -9 21 -20 3 -11 13 -20 21 -20 8 0 14 -4 14 -10
0 -5 5 -10 11 -10 6 0 23 -13 37 -28 15 -15 45 -41 67 -57 22 -17 42 -32 45
-35 3 -3 17 -11 33 -19 15 -8 27 -18 27 -23 0 -4 9 -8 20 -8 11 0 20 -4 20 -8
0 -4 15 -16 33 -27 17 -10 39 -27 48 -37 9 -10 24 -18 33 -18 9 0 16 -4 16
-10 0 -5 9 -10 20 -10 11 0 20 -4 20 -10 0 -5 9 -10 20 -10 11 0 20 -4 20 -10
0 -5 7 -10 15 -10 8 0 15 -4 15 -10 0 -5 9 -10 20 -10 11 0 20 -4 20 -8 0 -5
20 -17 45 -28 25 -10 45 -22 45 -26 0 -4 9 -8 20 -8 11 0 20 -4 20 -10 0 -5
11 -10 25 -10 14 0 25 -4 25 -10 0 -5 14 -10 30 -10 17 0 30 -4 30 -10 0 -5 7
-10 15 -10 12 0 84 -30 147 -61 10 -5 29 -9 43 -9 14 0 25 -4 25 -10 0 -5 14
-10 30 -10 17 0 30 -4 30 -10 0 -5 16 -10 35 -10 19 0 35 -4 35 -10 0 -5 15
-10 34 -10 19 0 38 -4 41 -10 3 -5 26 -10 50 -10 24 0 47 -4 50 -10 3 -5 20
-10 37 -10 18 0 45 -4 62 -9 110 -34 326 -55 571 -55 254 -1 396 14 556 55 20
5 55 9 78 9 22 0 41 5 41 10 0 6 20 10 45 10 25 0 45 5 45 10 0 6 18 10 40 10
22 0 40 5 40 10 0 6 16 10 35 10 19 0 35 5 35 10 0 6 14 10 30 10 17 0 30 3
30 8 0 4 29 16 65 27 36 10 65 23 65 27 0 4 9 8 19 8 11 0 23 4 26 10 3 5 17
10 31 10 13 0 24 5 24 10 0 6 11 10 25 10 14 0 25 5 25 10 0 6 14 10 30 10 17
0 30 5 30 10 0 6 5 10 11 10 6 0 23 8 37 19 15 10 39 21 55 25 15 3 27 11 27
16 0 6 9 10 20 10 11 0 20 5 20 10 0 6 7 10 15 10 8 0 15 5 15 10 0 6 9 10 20
10 11 0 20 5 20 10 0 6 9 10 19 10 11 0 21 3 23 8 2 4 30 25 63 47 33 22 62
43 63 48 2 4 11 7 21 7 9 0 23 9 31 20 8 11 20 20 27 20 7 0 13 5 13 10 0 6 7
10 15 10 8 0 15 5 15 10 0 6 5 10 10 10 12 0 26 11 75 57 19 18 37 33 40 33 3
0 21 15 40 32 19 18 55 51 81 73 72 62 203 198 210 217 3 10 14 18 25 18 10 0
19 7 19 15 0 8 5 15 10 15 6 0 10 5 10 10 0 6 11 23 24 38 14 15 34 38 45 52
11 14 25 30 31 37 5 7 10 15 10 18 0 3 14 19 30 37 17 17 30 35 30 40 0 5 5
14 10 21 48 57 62 76 73 99 6 16 15 28 19 28 5 0 8 9 8 20 0 11 5 20 10 20 6
0 10 6 10 14 0 7 7 19 15 26 9 7 25 35 37 62 11 26 24 48 29 48 5 0 9 9 9 20
0 11 3 20 8 20 10 0 32 50 32 72 0 10 5 18 10 18 6 0 10 9 10 20 0 11 5 20 10
20 6 0 10 9 10 20 0 11 5 20 10 20 6 0 10 11 10 25 0 14 4 25 9 25 5 0 11 10
14 23 6 28 27 86 38 109 5 10 9 27 9 38 0 11 5 20 10 20 6 0 10 9 10 20 0 11
5 20 10 20 6 0 10 18 10 39 0 22 5 43 10 46 6 3 10 21 10 40 0 19 5 37 10 40
6 3 10 18 10 33 0 15 7 47 16 72 22 62 46 198 51 298 2 45 9 82 14 82 12 0 12
573 0 586 -5 5 -12 45 -15 89 -7 108 -21 199 -41 265 -17 56 -31 118 -42 178
-3 17 -9 32 -14 32 -5 0 -9 18 -9 40 0 22 -4 40 -10 40 -5 0 -10 11 -10 25 0
14 -4 25 -10 25 -5 0 -10 11 -10 25 0 14 -4 33 -9 43 -21 40 -41 91 -41 106 0
9 -3 16 -8 16 -4 0 -13 15 -20 33 -7 17 -18 40 -23 49 -5 10 -9 25 -9 33 0 8
-4 15 -10 15 -5 0 -10 11 -10 25 0 14 -3 25 -7 25 -5 0 -21 27 -38 60 -16 33
-33 60 -37 60 -4 0 -8 8 -8 18 0 10 -9 28 -20 40 -11 12 -20 28 -20 37 0 8 -4
15 -10 15 -5 0 -10 9 -10 19 0 11 -4 21 -9 23 -4 2 -20 22 -35 46 -14 23 -31
42 -36 42 -6 0 -10 9 -10 20 0 11 -4 20 -8 20 -5 0 -15 12 -23 28 -8 15 -22
34 -31 43 -10 9 -18 19 -18 23 0 8 -14 26 -57 71 -18 19 -33 37 -33 40 0 6
-12 20 -115 128 -30 33 -55 61 -55 63 0 7 -89 94 -95 94 -6 0 -27 19 -90 78
-19 17 -37 32 -40 32 -3 0 -21 15 -40 33 -45 43 -57 52 -86 67 -13 7 -31 21
-40 32 -9 10 -21 18 -28 18 -6 0 -11 5 -11 10 0 6 -8 10 -18 10 -10 0 -24 9
-32 20 -8 11 -18 20 -23 20 -5 0 -23 11 -41 25 -18 14 -38 25 -44 25 -7 0 -12
5 -12 10 0 6 -8 10 -18 10 -10 0 -24 9 -32 20 -8 11 -20 20 -27 20 -7 0 -28 9
-48 20 -20 11 -40 20 -46 20 -5 0 -15 5 -22 10 -34 29 -90 60 -107 60 -11 0
-20 5 -20 10 0 6 -9 10 -20 10 -11 0 -20 5 -20 10 0 6 -13 10 -30 10 -16 0
-30 4 -30 8 0 4 -17 14 -37 21 -21 7 -47 16 -58 21 -60 27 -100 40 -121 40
-13 0 -24 5 -24 10 0 6 -11 10 -25 10 -14 0 -25 5 -25 10 0 6 -18 10 -40 10
-22 0 -40 5 -40 10 0 6 -15 10 -34 10 -19 0 -38 5 -41 10 -3 6 -26 10 -50 10
-24 0 -47 5 -50 10 -3 6 -21 10 -38 10 -18 0 -48 5 -67 11 -104 34 -603 69
-695 49z m338 -246 c52 -5 57 -8 57 -30 0 -16 -16 -40 -42 -67 -24 -23 -52
-55 -63 -70 -19 -28 -31 -43 -67 -86 -10 -12 -18 -28 -18 -36 0 -8 -4 -15 -9
-15 -5 0 -14 -13 -21 -30 -7 -16 -16 -30 -21 -30 -5 0 -9 -6 -9 -14 0 -7 -7
-19 -15 -26 -8 -7 -15 -21 -15 -31 0 -11 -4 -19 -9 -19 -5 0 -14 -13 -21 -30
-7 -16 -16 -30 -21 -30 -5 0 -9 -9 -9 -21 0 -52 -62 -64 -131 -24 -24 14 -51
25 -59 25 -8 0 -26 9 -40 20 -14 11 -40 20 -57 20 -18 0 -33 5 -33 10 0 6 -13
10 -30 10 -16 0 -30 5 -30 10 0 6 -11 10 -25 10 -14 0 -25 5 -25 10 0 6 -13
10 -30 10 -16 0 -30 4 -30 9 0 5 -17 11 -37 14 -21 3 -65 13 -98 22 -33 10
-79 20 -102 22 -24 3 -43 9 -43 14 0 5 -25 9 -55 9 -30 0 -55 5 -55 10 0 6
-35 10 -85 10 -50 0 -85 4 -85 10 0 6 -20 10 -45 10 -36 0 -45 3 -45 18 0 17
50 52 76 52 8 0 14 5 14 10 0 6 9 10 20 10 11 0 20 5 20 10 0 6 14 10 30 10
17 0 30 5 30 10 0 6 11 10 25 10 14 0 25 5 25 10 0 6 9 10 20 10 11 0 28 4 38
9 32 16 87 33 120 38 18 3 35 9 38 14 3 5 23 9 45 9 21 0 39 5 39 10 0 6 16
10 35 10 19 0 35 5 35 10 0 6 23 10 50 10 28 0 50 4 50 9 0 10 55 16 272 29
70 4 131 11 135 16 8 8 192 2 306 -10z m502 -89 c14 -13 25 -27 25 -30 0 -4 7
-13 15 -21 8 -9 15 -24 15 -35 0 -10 5 -19 10 -19 6 0 10 -13 10 -29 0 -17 4
-32 9 -35 9 -6 18 -49 27 -128 l6 -48 -36 0 c-20 0 -36 -4 -36 -10 0 -5 -22
-10 -50 -10 -27 0 -50 -4 -50 -10 0 -5 -25 -10 -55 -10 -30 0 -55 -4 -55 -10
0 -5 -16 -10 -35 -10 -19 0 -43 -4 -53 -9 -9 -5 -28 -13 -42 -18 -72 -28 -98
-36 -132 -40 -35 -5 -38 -3 -38 21 0 14 5 26 10 26 6 0 10 9 10 20 0 11 4 20
8 20 5 0 22 25 37 55 16 30 32 55 36 55 4 0 11 9 14 20 4 11 17 32 31 45 13
13 24 29 24 35 0 5 5 10 10 10 6 0 10 5 10 11 0 12 96 109 150 151 45 36 92
37 125 3z m285 -75 c0 -5 11 -10 25 -10 14 0 25 -4 25 -10 0 -5 14 -10 30 -10
17 0 30 -4 30 -10 0 -5 9 -10 20 -10 11 0 20 -4 20 -10 0 -5 8 -10 18 -10 9 0
37 -11 61 -25 23 -14 49 -25 57 -25 8 0 14 -4 14 -10 0 -5 9 -10 20 -10 11 0
20 -4 20 -10 0 -5 9 -10 20 -10 11 0 20 -4 20 -10 0 -5 7 -10 15 -10 8 0 15
-9 15 -20 0 -19 -7 -20 -127 -20 -71 0 -161 -5 -201 -10 -96 -13 -94 -15 -118
113 -4 17 -10 37 -14 42 -5 6 -11 27 -15 48 l-7 37 36 0 c20 0 36 -4 36 -10z
m-2010 -431 c19 -5 50 -9 68 -9 17 0 32 -4 32 -10 0 -5 25 -10 55 -10 30 0 55
-4 55 -10 0 -5 20 -10 45 -10 25 0 45 -4 45 -10 0 -5 20 -10 45 -10 25 0 45
-4 45 -10 0 -5 11 -10 25 -10 13 0 41 -7 62 -16 62 -27 75 -32 148 -56 109
-35 110 -45 13 -94 -40 -20 -74 -40 -76 -45 -2 -5 -10 -9 -18 -9 -8 0 -14 -4
-14 -10 0 -5 -9 -10 -20 -10 -11 0 -20 -4 -20 -10 0 -5 -9 -10 -20 -10 -11 0
-20 -4 -20 -10 0 -5 -5 -10 -12 -10 -6 0 -26 -11 -44 -25 -18 -14 -37 -25 -43
-25 -6 0 -11 -4 -11 -9 0 -5 -9 -13 -20 -16 -11 -4 -32 -17 -45 -31 -13 -13
-31 -24 -40 -24 -9 0 -26 -10 -39 -22 -13 -13 -36 -32 -51 -43 -16 -11 -34
-26 -41 -32 -7 -7 -17 -13 -23 -13 -6 0 -11 -4 -11 -10 0 -5 -5 -10 -11 -10
-7 0 -19 -8 -28 -18 -9 -10 -32 -29 -51 -42 -19 -13 -49 -39 -66 -57 -18 -18
-38 -33 -46 -33 -7 0 -20 -9 -28 -20 -15 -21 -80 -29 -80 -10 0 15 -177 13
-197 -2 -20 -17 -94 -91 -110 -111 -7 -9 -13 -30 -13 -47 0 -16 -4 -30 -10
-30 -5 0 -10 -16 -10 -35 0 -19 5 -35 10 -35 6 0 10 -16 10 -35 0 -19 5 -35
10 -35 16 0 12 -21 -8 -39 -9 -9 -23 -28 -31 -43 -8 -16 -19 -28 -25 -28 -6 0
-21 -13 -33 -28 -12 -16 -36 -43 -53 -60 -16 -18 -30 -37 -30 -43 0 -6 -13
-23 -28 -37 -15 -15 -41 -45 -57 -67 -17 -22 -38 -47 -47 -56 -10 -9 -18 -21
-18 -28 0 -6 -4 -11 -10 -11 -5 0 -10 -7 -10 -15 0 -8 -4 -15 -8 -15 -4 0 -16
-15 -27 -32 -10 -18 -27 -40 -37 -49 -10 -9 -18 -23 -18 -30 0 -8 -9 -21 -20
-29 -11 -8 -20 -20 -20 -27 0 -7 -4 -13 -10 -13 -5 0 -10 -9 -10 -20 0 -11 -4
-20 -10 -20 -5 0 -10 -7 -10 -15 0 -21 -53 -75 -74 -75 -10 0 -16 8 -16 25 0
14 -4 25 -10 25 -5 0 -10 14 -10 30 0 17 -4 30 -10 30 -5 0 -10 18 -10 40 0
21 -4 49 -9 62 -12 32 -31 137 -43 238 -22 180 -10 687 17 730 6 10 19 73 32
163 3 20 9 37 14 37 5 0 9 9 9 20 0 11 5 20 10 20 6 0 10 18 10 40 0 22 5 40
10 40 6 0 10 5 10 10 0 13 11 27 68 85 23 25 42 47 42 50 0 9 48 55 57 55 5 0
15 9 23 20 8 11 22 20 31 20 10 0 19 3 21 8 6 13 116 82 132 82 9 0 16 5 16
10 0 6 14 10 30 10 17 0 30 5 30 10 0 6 16 10 35 10 19 0 35 5 35 10 0 6 18
10 40 10 22 0 40 4 40 9 0 30 436 47 540 20z m1866 13 c23 -15 39 -445 21
-554 -10 -59 -25 -61 -75 -13 -20 19 -43 35 -49 35 -7 0 -13 5 -13 10 0 6 -7
10 -16 10 -9 0 -29 14 -44 30 -15 17 -31 30 -35 30 -5 0 -80 53 -112 80 -7 5
-17 10 -23 10 -5 0 -10 5 -10 10 0 6 -9 10 -20 10 -11 0 -20 4 -20 8 0 5 -11
14 -25 20 -14 7 -31 17 -38 22 -20 17 -129 80 -138 80 -5 0 -9 5 -9 10 0 6 -7
10 -15 10 -8 0 -15 4 -15 9 0 5 -9 11 -19 14 -45 11 9 67 65 67 13 0 26 5 29
10 3 6 24 10 46 10 21 0 39 5 39 10 0 6 16 10 35 10 19 0 35 5 35 10 0 6 24
10 54 10 30 0 58 5 61 10 3 6 21 10 39 10 17 0 36 4 42 9 8 9 45 13 164 19 19
1 40 -2 46 -6z m435 -13 c10 -5 29 -9 43 -9 14 0 26 -4 26 -10 0 -5 25 -10 55
-10 30 0 55 -4 55 -10 0 -5 14 -10 30 -10 17 0 30 -4 30 -10 0 -5 16 -10 35
-10 19 0 35 -4 35 -10 0 -5 6 -10 14 -10 18 0 130 -51 134 -62 2 -4 15 -8 28
-8 13 0 24 -4 24 -10 0 -5 9 -10 20 -10 11 0 20 -4 20 -10 0 -5 7 -10 15 -10
8 0 15 -4 15 -10 0 -5 7 -10 15 -10 8 0 15 -4 15 -10 0 -5 9 -10 20 -10 11 0
20 -4 20 -9 0 -5 8 -12 19 -16 10 -3 33 -19 50 -35 17 -17 36 -30 42 -30 14 0
129 -121 129 -135 0 -6 9 -17 20 -25 11 -8 20 -22 20 -32 0 -10 5 -18 10 -18
6 0 10 -8 10 -18 0 -10 4 -22 9 -28 20 -20 61 -108 61 -130 0 -13 5 -24 10
-24 6 0 10 -13 10 -30 0 -16 5 -30 10 -30 6 0 10 -20 10 -45 0 -25 5 -45 10
-45 6 0 10 -80 10 -220 0 -140 -4 -220 -10 -220 -5 0 -10 -25 -10 -56 l0 -56
-67 6 c-153 13 -193 18 -193 27 0 5 -43 9 -95 9 -94 0 -95 0 -95 24 0 14 -4
28 -10 31 -5 3 -10 19 -10 35 0 32 -19 80 -31 80 -4 0 -11 10 -14 21 -10 32
-111 129 -134 129 -11 0 -21 4 -23 10 -1 5 -15 11 -30 12 -16 1 -28 6 -28 11
0 9 -182 3 -221 -7 -26 -8 -24 -9 -98 72 -16 17 -31 32 -34 32 -3 0 -34 28
-70 63 -74 72 -115 107 -123 107 -4 0 -17 12 -30 28 -19 22 -24 38 -24 85 0
31 4 57 10 57 6 0 10 93 10 260 0 167 -4 260 -10 260 -12 0 -14 93 -2 104 9
11 241 -3 263 -15z m-1571 -371 c0 -27 -32 -122 -42 -126 -5 -2 -8 -12 -8 -23
0 -10 -4 -19 -10 -19 -5 0 -10 -11 -10 -25 0 -14 -4 -25 -10 -25 -5 0 -10 -13
-10 -30 0 -16 -4 -30 -10 -30 -5 0 -10 -13 -10 -29 0 -17 -4 -33 -10 -36 -5
-3 -10 -15 -10 -26 0 -10 -3 -19 -8 -19 -4 0 -16 -28 -26 -62 -11 -35 -23 -67
-28 -72 -4 -6 -8 -20 -8 -33 0 -13 -4 -23 -10 -23 -5 0 -10 -13 -10 -30 0 -16
-4 -30 -10 -30 -5 0 -10 -14 -10 -31 0 -44 -20 -59 -79 -59 -28 0 -51 -4 -51
-10 0 -5 -8 -10 -18 -10 -29 0 -124 -51 -154 -82 -14 -15 -29 -28 -32 -28 -13
0 -52 -46 -76 -88 -13 -23 -27 -42 -32 -42 -4 0 -8 -13 -8 -30 0 -16 -4 -30
-10 -30 -5 0 -10 -15 -10 -34 0 -19 -4 -38 -10 -41 -5 -3 -10 -37 -10 -74 0
-63 -2 -69 -25 -79 -14 -7 -37 -12 -50 -12 -13 0 -27 -4 -30 -10 -3 -5 -26
-10 -51 -10 -24 0 -44 -4 -44 -10 0 -5 -18 -10 -40 -10 -22 0 -40 -4 -40 -10
0 -5 -17 -10 -38 -10 -21 0 -42 -4 -47 -8 -6 -5 -37 -16 -70 -26 -33 -10 -74
-22 -91 -27 -17 -5 -40 -9 -52 -9 -11 0 -24 -4 -27 -10 -3 -5 -19 -10 -35 -10
-16 0 -32 -4 -35 -10 -3 -5 -22 -10 -41 -10 -19 0 -34 -4 -34 -10 0 -5 -13
-10 -30 -10 -16 0 -30 -4 -30 -10 0 -5 -8 -10 -17 -10 -9 0 -31 -5 -50 -12
-18 -6 -36 -9 -39 -5 -9 9 16 87 28 87 4 0 8 7 8 15 0 8 5 15 10 15 6 0 10 6
10 13 0 7 9 19 20 27 11 8 20 22 20 32 0 10 4 18 9 18 4 0 21 19 36 43 16 23
41 54 57 69 15 14 28 30 28 35 0 5 29 40 65 78 36 37 65 72 65 77 0 17 116
128 133 128 10 0 17 -4 17 -10 0 -6 35 -10 85 -10 50 0 85 4 85 10 0 6 7 10
15 10 17 0 75 52 75 66 0 5 9 16 20 24 13 9 20 26 20 47 0 18 5 33 10 33 6 0
10 20 10 45 0 25 -4 45 -10 45 -5 0 -10 17 -10 38 0 30 6 42 32 62 17 14 37
31 44 38 7 6 16 12 19 12 4 0 20 14 35 30 15 17 33 30 38 30 6 0 31 20 56 45
26 25 51 45 57 45 6 0 24 14 39 30 15 17 35 30 44 30 9 0 16 4 16 8 0 4 14 16
32 26 17 11 45 32 61 48 17 15 36 28 43 28 8 0 14 5 14 10 0 6 9 10 20 10 11
0 20 5 20 10 0 6 6 10 14 10 8 0 16 3 18 8 5 11 83 62 95 62 7 0 18 8 25 18 7
9 20 18 28 20 8 2 17 8 18 13 2 5 19 9 38 9 29 0 34 -4 34 -22z m380 -8 c0 -5
5 -10 10 -10 6 0 28 -11 50 -25 22 -14 45 -25 53 -25 7 0 19 -9 27 -20 8 -11
20 -20 27 -20 7 0 13 -4 13 -10 0 -5 9 -10 20 -10 11 0 20 -4 20 -10 0 -5 7
-10 16 -10 8 0 22 -6 29 -12 29 -26 41 -35 83 -58 23 -13 42 -27 42 -32 0 -4
8 -8 18 -8 10 0 24 -9 32 -20 8 -11 19 -20 25 -20 5 0 26 -14 45 -30 19 -16
38 -30 42 -30 4 0 23 -16 42 -35 20 -19 40 -35 46 -35 5 0 23 -11 38 -24 15
-14 37 -33 50 -44 19 -17 22 -29 22 -101 0 -47 -4 -81 -10 -81 -6 0 -10 -28
-10 -64 0 -36 -4 -68 -10 -71 -5 -3 -10 -33 -10 -65 0 -35 -7 -74 -17 -95
l-17 -35 -88 0 c-52 0 -88 -4 -88 -10 0 -5 -22 -10 -48 -10 -36 0 -51 5 -62
20 -8 11 -22 20 -32 20 -10 0 -18 5 -18 10 0 6 -26 10 -59 10 -33 0 -63 -4
-66 -10 -3 -5 -13 -10 -22 -10 -8 0 -27 -13 -41 -28 -30 -32 -53 -39 -157 -52
-38 -5 -91 -12 -117 -16 -44 -6 -48 -5 -48 15 0 11 -4 21 -10 21 -5 0 -10 14
-10 30 0 17 -4 30 -9 30 -5 0 -12 8 -15 18 -3 9 -17 30 -31 46 -14 16 -25 33
-25 38 0 4 -5 8 -11 8 -16 0 -39 26 -39 44 0 9 -4 16 -10 16 -5 0 -10 20 -10
45 0 25 5 45 10 45 6 0 10 16 10 35 0 19 5 35 10 35 6 0 10 14 10 30 0 17 5
30 10 30 6 0 10 13 10 29 0 17 5 33 10 36 6 3 10 15 10 26 0 10 4 27 9 37 5 9
17 37 26 62 9 25 21 53 26 62 5 10 9 25 9 33 0 8 5 15 10 15 6 0 10 14 10 30
0 17 5 30 10 30 6 0 10 11 10 25 0 14 5 25 10 25 6 0 10 14 10 30 0 17 5 30
10 30 6 0 10 6 10 13 0 6 12 36 27 65 23 44 32 52 55 52 15 0 28 -4 28 -10z
m-2590 -690 c0 -47 -4 -80 -10 -80 -5 0 -10 -16 -10 -35 0 -19 5 -35 10 -35 6
0 10 -53 10 -140 0 -77 4 -140 9 -140 5 0 12 -21 14 -47 9 -75 24 -153 42
-218 9 -33 19 -75 22 -92 3 -18 9 -33 14 -33 5 0 9 -11 9 -24 0 -14 5 -28 10
-31 6 -3 10 -22 10 -41 0 -19 5 -34 10 -34 6 0 10 -6 10 -13 0 -14 -85 -57
-113 -57 -9 0 -17 -4 -17 -10 0 -5 -9 -10 -20 -10 -11 0 -20 -4 -20 -10 0 -5
-7 -10 -15 -10 -8 0 -15 -4 -15 -10 0 -5 -11 -10 -25 -10 -14 0 -25 -4 -25
-10 0 -5 -10 -10 -21 -10 -12 0 -29 -8 -38 -18 -9 -10 -40 -31 -68 -47 -29
-15 -53 -32 -53 -37 0 -4 -9 -8 -20 -8 -19 0 -20 7 -20 165 0 103 4 165 10
165 6 0 10 37 10 90 0 53 4 90 10 90 6 0 10 27 10 60 0 33 4 60 10 60 6 0 10
11 10 25 0 13 4 34 9 47 5 13 17 58 27 101 10 42 22 77 26 77 4 0 8 15 8 34 0
19 5 38 10 41 6 3 10 17 10 31 0 13 5 24 10 24 6 0 10 11 10 25 0 14 5 25 10
25 6 0 10 14 10 30 0 17 4 30 8 30 5 0 15 23 22 50 7 28 16 50 20 50 3 0 14
16 23 35 11 23 24 35 37 35 18 0 20 -6 20 -80z m5185 -234 c8 -7 21 -38 30
-67 9 -30 21 -64 26 -77 5 -13 9 -34 9 -47 0 -13 5 -27 10 -30 6 -3 10 -19 10
-36 0 -21 -5 -29 -18 -29 -22 0 -72 22 -72 33 0 4 -14 7 -31 7 -31 0 -31 0
-24 43 3 23 9 75 11 116 3 40 11 80 17 87 15 17 16 17 32 0z m-1515 -256 c7
-16 16 -30 21 -30 4 0 11 -9 14 -20 9 -29 110 -130 129 -130 9 0 16 -4 16 -10
0 -5 8 -10 18 -10 9 0 35 -7 57 -15 54 -19 122 -19 184 1 50 17 51 17 70 -7
11 -13 20 -29 21 -34 0 -6 9 -17 20 -25 11 -8 20 -22 20 -32 0 -10 5 -18 10
-18 6 0 10 -9 10 -20 0 -11 4 -20 8 -20 5 0 17 -16 28 -35 10 -19 22 -35 26
-35 4 0 12 -16 19 -35 7 -19 17 -35 21 -35 4 0 8 -9 8 -20 0 -11 5 -20 10 -20
6 0 10 -8 10 -18 0 -10 9 -24 20 -32 11 -8 20 -22 20 -30 0 -9 9 -35 20 -58
24 -49 24 -52 5 -52 -8 0 -15 -4 -15 -10 0 -5 -16 -10 -35 -10 -19 0 -35 -4
-35 -10 0 -5 -13 -10 -28 -10 -16 0 -32 -3 -35 -7 -12 -12 -141 -55 -179 -60
-21 -3 -38 -9 -38 -14 0 -5 -16 -9 -35 -9 -19 0 -35 -4 -35 -10 0 -5 -18 -10
-40 -10 -22 0 -40 -4 -40 -10 0 -5 -13 -10 -30 -10 -16 0 -30 -4 -30 -9 0 -5
-17 -11 -37 -14 -21 -3 -90 -17 -153 -32 -63 -15 -130 -29 -147 -32 -18 -3
-33 -9 -33 -14 0 -5 -25 -9 -55 -9 -30 0 -55 -4 -55 -10 0 -6 -28 -10 -65 -10
-37 0 -65 -4 -65 -10 0 -5 -22 -10 -50 -10 l-50 0 0 35 c0 19 5 35 10 35 6 0
10 23 10 50 0 28 5 50 10 50 6 0 10 18 10 40 0 22 5 40 10 40 6 0 10 9 10 19
0 37 12 51 41 51 16 0 29 4 29 9 0 5 12 11 28 14 28 6 58 26 95 64 40 41 47
52 47 78 0 14 5 25 10 25 6 0 10 28 10 65 0 37 -4 65 -10 65 -5 0 -10 9 -10
21 0 27 -56 109 -75 109 -4 0 -13 6 -21 14 -16 17 -20 116 -4 116 6 0 10 21
10 47 0 47 16 107 35 130 7 8 48 12 126 13 l117 0 12 -30z m-420 -18 c0 -15
-4 -32 -9 -37 -5 -6 -11 -28 -15 -50 -17 -123 -26 -145 -60 -145 -39 0 -146
-96 -146 -130 0 -11 -4 -20 -10 -20 -6 0 -10 -35 -10 -85 0 -50 4 -85 10 -85
6 0 10 -9 10 -20 0 -11 5 -20 10 -20 6 0 10 -7 10 -15 0 -8 13 -24 30 -36 39
-29 42 -42 25 -92 -8 -23 -15 -59 -15 -79 0 -21 -4 -38 -10 -38 -5 0 -10 -18
-10 -40 0 -22 -4 -40 -10 -40 -5 0 -10 -16 -10 -35 0 -19 -4 -35 -10 -35 -5 0
-10 -12 -10 -26 0 -38 -16 -48 -105 -67 -158 -33 -235 -27 -235 18 0 16 -86
107 -118 124 -39 21 -115 41 -155 41 -44 0 -137 -28 -137 -41 0 -5 -7 -9 -16
-9 -19 0 -114 -98 -114 -117 0 -7 -4 -13 -10 -13 -5 0 -10 -11 -10 -25 0 -14
-4 -25 -10 -25 -5 0 -10 -11 -10 -25 l0 -25 -104 0 c-59 0 -108 -4 -111 -10
-3 -5 -15 -10 -26 -10 -19 0 -20 5 -15 68 8 107 16 165 26 187 5 11 11 36 14
55 2 19 12 62 21 95 22 79 35 140 42 193 3 23 9 42 14 42 5 0 9 18 9 39 0 43
10 51 65 51 19 0 37 5 40 10 3 6 19 10 36 10 16 0 29 5 29 10 0 6 9 10 20 10
11 0 20 5 20 10 0 6 9 10 20 10 11 0 20 5 20 10 0 6 5 10 10 10 11 0 80 65 80
76 0 3 13 18 28 32 29 28 62 85 62 109 0 7 5 13 10 13 6 0 10 16 10 35 0 19 5
35 10 35 6 0 10 10 10 23 0 21 7 24 78 35 140 22 202 18 202 -11 0 -7 10 -19
21 -27 12 -8 27 -21 35 -27 7 -8 40 -13 83 -13 39 0 81 6 94 13 28 16 67 59
67 75 0 6 5 12 10 12 6 0 10 5 10 10 0 30 27 39 118 40 l92 0 0 -28z m1210 -1
c0 -5 30 -12 68 -14 64 -5 124 -15 202 -34 30 -7 35 -13 38 -41 2 -18 -1 -32
-7 -32 -6 0 -11 -11 -11 -24 0 -14 -4 -28 -10 -31 -5 -3 -10 -17 -10 -31 0
-13 -4 -24 -10 -24 -5 0 -10 -13 -10 -30 0 -16 -4 -30 -10 -30 -5 0 -10 -11
-10 -25 0 -14 -4 -25 -10 -25 -5 0 -10 -7 -10 -15 0 -17 -18 -52 -37 -73 -7
-7 -13 -18 -13 -23 0 -5 -4 -9 -10 -9 -5 0 -10 9 -10 20 0 11 -4 20 -10 20 -5
0 -10 7 -10 15 0 8 -4 15 -10 15 -5 0 -10 7 -10 15 0 8 -3 15 -8 15 -4 0 -13
15 -21 33 -8 17 -17 34 -21 37 -11 10 -80 119 -80 128 0 5 -12 22 -27 39 -41
44 -65 90 -58 113 5 17 15 20 61 20 30 0 54 -4 54 -9z m682 -168 c3 -7 59 -31
136 -57 27 -9 32 -16 32 -44 0 -18 -6 -39 -12 -45 -21 -20 -97 -67 -108 -67
-5 0 -10 -4 -10 -10 0 -5 -9 -10 -20 -10 -11 0 -20 -4 -20 -10 0 -5 -7 -10
-15 -10 -8 0 -15 -4 -15 -10 0 -5 -9 -10 -19 -10 -11 0 -21 -4 -23 -9 -5 -13
-108 -62 -118 -56 -8 5 19 98 33 112 4 3 7 19 7 35 0 15 5 28 10 28 6 0 10 9
10 20 0 11 5 20 10 20 6 0 10 14 10 30 0 17 5 30 10 30 6 0 10 16 10 35 0 35
0 35 44 35 24 0 46 -3 48 -7z m-3592 -84 c23 -33 72 -89 108 -125 31 -33 46
-94 22 -94 -5 0 -10 -22 -10 -50 0 -27 -4 -50 -10 -50 -5 0 -10 -20 -10 -45 0
-25 -4 -45 -10 -45 -5 0 -10 -18 -10 -40 0 -22 -4 -40 -9 -40 -5 0 -11 -21
-14 -47 -2 -27 -12 -79 -22 -118 -9 -38 -19 -91 -22 -118 -3 -26 -10 -50 -14
-53 -5 -3 -9 -20 -9 -39 0 -19 -4 -37 -10 -40 -5 -3 -10 -17 -10 -30 0 -19 -7
-24 -42 -30 -71 -12 -656 -16 -663 -5 -3 6 -28 10 -54 10 -46 0 -49 1 -66 40
-10 22 -22 40 -27 40 -4 0 -8 7 -8 15 0 8 -4 15 -10 15 -5 0 -10 9 -10 20 0
11 -4 20 -10 20 -5 0 -10 7 -10 15 0 9 -9 25 -20 37 -11 12 -20 28 -20 36 0 8
-8 26 -19 40 -28 40 -71 133 -71 154 0 10 -4 18 -10 18 -5 0 -10 9 -10 20 0
11 -4 20 -10 20 -5 0 -10 9 -10 20 0 11 -4 20 -10 20 -5 0 -10 11 -10 24 0 14
-4 28 -10 31 -23 14 -10 50 23 63 17 8 57 24 87 36 30 13 75 29 100 35 25 7
53 17 62 22 10 5 31 9 48 9 16 0 30 5 30 10 0 6 14 10 30 10 17 0 30 5 30 10
0 6 11 10 24 10 14 0 28 5 31 10 3 6 19 10 35 10 16 0 32 5 35 10 3 6 15 10
25 10 22 0 106 26 132 40 10 6 29 10 42 10 14 0 28 5 31 10 3 6 22 10 41 10
19 0 34 5 34 10 0 6 20 10 45 10 25 0 45 5 45 10 0 6 18 10 40 10 22 0 40 5
40 10 0 6 15 10 33 10 17 0 39 5 47 10 21 13 24 13 40 -11z m3780 -529 c0
-120 -4 -190 -10 -190 -6 0 -10 -33 -10 -80 0 -47 -4 -80 -10 -80 -5 0 -10
-18 -10 -40 0 -22 -4 -40 -9 -40 -5 0 -11 -21 -14 -47 -9 -86 -64 -273 -79
-273 -5 0 -8 -16 -8 -35 0 -19 -4 -35 -10 -35 -5 0 -10 -13 -10 -30 0 -16 -4
-30 -10 -30 -5 0 -10 -11 -10 -25 0 -14 -4 -25 -10 -25 -5 0 -10 -9 -10 -19 0
-11 -16 -47 -35 -81 -19 -34 -35 -68 -35 -76 0 -8 -9 -14 -20 -14 -19 0 -20 7
-20 95 0 52 -4 95 -9 95 -6 0 -12 46 -14 103 -6 114 -16 188 -42 292 -9 39
-19 82 -22 98 -3 15 -9 27 -14 27 -5 0 -9 18 -9 40 0 22 -4 40 -10 40 -5 0
-10 16 -10 35 0 19 -4 35 -10 35 -5 0 -10 14 -10 30 0 17 -4 30 -10 30 -5 0
-10 11 -10 25 0 14 -4 25 -10 25 -5 0 -10 13 -10 29 0 16 -6 31 -12 33 -15 5
13 38 32 38 15 0 74 32 78 43 2 4 15 7 28 7 13 0 24 5 24 10 0 6 9 10 20 10
11 0 20 5 20 10 0 6 9 10 20 10 11 0 20 5 20 10 0 6 11 10 24 10 13 0 26 3 28
8 5 11 59 47 103 67 22 10 47 27 55 37 8 10 27 18 43 18 l27 0 0 -190z m-5180
60 c0 -11 -4 -20 -10 -20 -5 0 -10 -8 -10 -18 0 -10 -13 -44 -30 -77 -16 -33
-30 -67 -30 -76 0 -8 -7 -24 -15 -35 -8 -10 -15 -31 -15 -46 0 -16 -4 -28 -10
-28 -5 0 -10 -9 -10 -20 0 -11 -4 -20 -10 -20 -5 0 -10 -13 -10 -29 0 -17 -6
-31 -16 -35 -25 -10 -94 -7 -94 4 0 6 -11 10 -25 10 -25 0 -98 30 -103 43 -2
4 -10 7 -19 7 -29 0 -43 27 -43 85 0 58 14 85 44 85 9 0 16 4 16 9 0 4 26 22
59 39 32 18 64 39 71 47 7 8 21 15 31 15 11 0 19 5 19 10 0 6 9 10 20 10 11 0
20 5 20 10 0 6 14 10 30 10 17 0 30 5 30 10 0 6 9 10 20 10 11 0 20 5 20 10 0
6 16 10 35 10 28 0 35 -4 35 -20z m150 -80 c0 -11 5 -20 10 -20 6 0 10 -6 10
-14 0 -16 51 -110 62 -114 4 -2 8 -10 8 -18 0 -8 5 -14 10 -14 6 0 10 -8 10
-18 0 -10 9 -24 20 -32 11 -8 20 -23 20 -34 0 -10 8 -26 18 -35 27 -25 53 -78
46 -95 -7 -18 -88 -23 -99 -6 -3 6 -50 10 -106 10 -59 0 -99 4 -99 10 0 6 -18
10 -40 10 l-40 0 0 40 c0 22 5 40 10 40 6 0 10 16 10 35 0 19 5 35 10 35 6 0
10 14 10 30 0 17 4 30 9 30 5 0 15 20 22 45 7 25 17 45 21 45 4 0 8 7 8 16 0
9 8 29 17 45 20 34 53 39 53 9z m3940 -280 c0 -11 -4 -20 -10 -20 -5 0 -10 -5
-10 -10 0 -6 -10 -22 -22 -35 -60 -65 -68 -75 -68 -85 0 -5 -4 -10 -10 -10 -5
0 -10 -4 -10 -10 0 -11 -18 -34 -70 -90 -68 -72 -100 -110 -100 -115 0 -3 -11
-17 -25 -30 -18 -18 -35 -25 -65 -25 -22 0 -40 5 -40 10 0 6 -42 10 -105 10
-63 0 -105 -4 -105 -10 0 -5 -13 -10 -30 -10 -16 0 -30 -4 -30 -10 0 -5 -7
-10 -15 -10 -8 0 -15 -4 -15 -10 0 -5 -7 -10 -15 -10 -27 0 -135 -104 -135
-130 0 -5 -4 -10 -10 -10 -5 0 -10 -11 -10 -25 0 -14 -4 -25 -8 -25 -29 0 -48
-251 -19 -264 10 -5 10 -7 0 -12 -7 -3 -13 -12 -13 -20 0 -8 -6 -14 -13 -14
-7 0 -19 -9 -27 -20 -8 -11 -21 -20 -29 -20 -7 0 -21 -8 -30 -19 -9 -10 -31
-26 -49 -35 -18 -9 -38 -25 -45 -36 -6 -11 -20 -20 -29 -20 -10 0 -18 -4 -18
-10 0 -5 -8 -10 -18 -10 -10 0 -24 -9 -32 -20 -8 -11 -20 -20 -27 -20 -7 0
-13 -4 -13 -10 0 -5 -7 -10 -15 -10 -15 0 -25 -6 -60 -37 -7 -7 -19 -13 -25
-13 -6 0 -20 -9 -32 -20 -12 -11 -30 -20 -40 -20 -10 0 -18 -4 -18 -10 0 -5
-13 -10 -30 -10 -23 0 -30 4 -30 20 0 11 5 20 10 20 6 0 10 11 10 25 0 14 5
25 10 25 6 0 10 12 10 28 0 15 9 42 20 60 11 18 20 38 20 45 0 6 6 23 13 37 7
14 19 45 26 70 7 25 17 53 22 62 5 10 9 27 9 38 0 11 5 20 10 20 6 0 10 14 10
30 0 17 4 30 9 30 8 0 12 12 27 90 4 19 10 37 13 40 4 3 20 46 36 95 16 50 32
94 37 99 4 6 8 23 8 38 0 15 5 28 10 28 6 0 10 16 10 35 0 19 5 35 10 35 6 0
10 16 10 36 0 53 35 80 114 88 33 3 97 13 141 21 44 9 95 18 113 22 18 3 35 9
38 14 3 5 27 9 54 9 27 0 52 5 55 10 3 6 28 10 56 10 27 0 49 5 49 10 0 6 25
10 55 10 30 0 55 5 55 10 0 6 11 10 24 10 14 0 28 5 31 10 3 6 22 10 41 10 19
0 34 4 34 8 0 8 79 27 153 39 20 3 37 9 37 14 0 5 11 9 24 9 14 0 28 5 31 10
3 6 22 10 41 10 27 0 34 -4 34 -20z m390 -50 c0 -10 5 -22 10 -25 6 -3 10 -17
10 -30 0 -13 5 -27 10 -30 6 -3 10 -24 10 -46 0 -21 5 -39 10 -39 6 0 10 -27
10 -60 0 -33 4 -60 10 -60 6 0 10 -48 10 -124 0 -73 4 -127 10 -131 6 -3 10
-42 10 -85 0 -43 -4 -82 -10 -85 -6 -4 -10 -53 -10 -116 0 -66 -4 -109 -10
-109 -6 0 -10 -26 -10 -59 0 -33 -4 -63 -10 -66 -5 -3 -10 -24 -10 -46 0 -21
-4 -39 -8 -39 -4 0 -14 -20 -21 -45 -7 -24 -21 -54 -32 -66 -10 -12 -21 -30
-24 -40 -4 -11 -11 -19 -16 -19 -5 0 -9 -7 -9 -15 0 -8 -4 -15 -10 -15 -5 0
-10 -7 -10 -15 0 -8 -4 -15 -10 -15 -5 0 -10 -4 -10 -10 0 -12 -158 -170 -170
-170 -6 0 -24 -13 -41 -30 -17 -16 -40 -32 -50 -35 -11 -4 -19 -11 -19 -16 0
-5 -9 -9 -20 -9 -11 0 -20 -4 -20 -10 0 -5 -7 -10 -15 -10 -8 0 -15 -4 -15
-10 0 -5 -9 -10 -20 -10 -11 0 -20 -4 -20 -10 0 -5 -13 -10 -30 -10 -16 0 -30
-4 -30 -10 0 -5 -11 -10 -25 -10 -14 0 -25 -4 -25 -10 0 -5 -13 -10 -30 -10
-16 0 -30 -4 -30 -9 0 -5 -15 -11 -32 -14 -18 -3 -53 -11 -78 -18 -59 -16
-485 -16 -555 0 -27 7 -71 15 -97 18 -27 3 -48 9 -48 14 0 5 -20 9 -45 9 -25
0 -45 5 -45 10 0 6 -18 10 -40 10 -22 0 -40 5 -40 10 0 6 -16 10 -35 10 -19 0
-35 5 -35 10 0 6 -16 10 -35 10 -19 0 -35 4 -35 8 0 5 -22 15 -50 22 -38 10
-50 18 -50 33 0 22 23 47 44 47 9 0 16 5 16 10 0 6 11 10 25 10 14 0 25 5 25
10 0 6 9 10 20 10 11 0 20 3 20 8 0 4 20 16 45 27 25 11 45 23 45 28 0 4 9 7
20 7 11 0 20 5 20 10 0 6 8 10 18 10 10 0 24 9 32 20 8 11 22 20 32 20 10 0
18 3 18 8 0 4 15 14 33 22 17 7 38 19 45 24 7 6 18 16 25 21 7 6 24 16 40 24
15 8 27 18 27 23 0 4 7 8 15 8 8 0 15 5 15 10 0 6 9 10 20 10 11 0 20 4 20 8
0 4 12 15 28 24 15 9 42 30 60 47 17 17 39 31 47 31 8 0 15 5 15 10 0 6 9 10
20 10 11 0 20 -4 20 -9 0 -20 192 -32 255 -17 44 12 85 30 85 38 0 5 7 8 15 8
8 0 15 5 15 10 0 6 7 10 16 10 16 0 53 35 89 85 11 15 26 33 33 40 6 8 12 23
12 34 0 12 5 21 10 21 6 0 10 14 10 30 0 17 5 30 10 30 6 0 10 35 10 85 0 50
-4 85 -10 85 -5 0 -10 13 -10 30 0 30 18 54 108 146 23 24 42 46 42 49 0 3 14
20 30 38 59 62 100 112 100 122 0 6 9 17 20 25 11 8 20 19 20 25 0 6 9 17 20
25 11 8 20 21 20 30 0 8 9 21 20 27 11 7 27 27 36 45 9 18 25 40 35 49 11 9
19 21 19 28 0 17 51 71 61 65 5 -3 9 -14 9 -24z m-4800 -200 c0 -5 11 -10 25
-10 14 0 35 -8 46 -19 19 -17 19 -21 5 -62 -9 -24 -16 -63 -16 -87 0 -35 -10
-71 -25 -90 -9 -10 -35 15 -35 33 0 13 -4 26 -9 29 -5 3 -11 20 -14 38 -3 18
-15 60 -26 92 -28 80 -28 86 14 86 19 0 35 -4 35 -10z m3100 -34 c0 -14 -4
-28 -10 -31 -5 -3 -10 -22 -10 -41 0 -19 -4 -34 -10 -34 -5 0 -10 -16 -10 -35
0 -19 -4 -35 -10 -35 -5 0 -10 -13 -10 -30 0 -16 -4 -30 -10 -30 -5 0 -10 -11
-10 -25 0 -14 -4 -33 -9 -43 -5 -9 -18 -45 -28 -79 -10 -35 -21 -63 -25 -63
-5 0 -8 -11 -8 -24 0 -14 -4 -28 -10 -31 -5 -3 -10 -22 -10 -41 0 -19 -4 -34
-10 -34 -5 0 -10 -13 -10 -30 0 -16 -4 -30 -10 -30 -5 0 -10 -11 -10 -25 0
-14 -4 -25 -10 -25 -5 0 -10 -13 -10 -30 0 -16 -4 -30 -10 -30 -5 0 -10 -11
-10 -24 0 -14 -4 -27 -9 -31 -5 -3 -13 -20 -16 -38 -4 -17 -16 -50 -26 -71
-11 -22 -19 -46 -19 -53 0 -7 -4 -13 -10 -13 -5 0 -10 -11 -10 -25 0 -14 -4
-25 -10 -25 -5 0 -10 -13 -10 -30 0 -16 -4 -30 -10 -30 -5 0 -10 -10 -10 -21
0 -24 -26 -48 -52 -49 -10 0 -18 -4 -18 -10 0 -5 -13 -10 -30 -10 -16 0 -30
-4 -30 -10 0 -5 -9 -10 -20 -10 -11 0 -20 -4 -20 -10 0 -5 -25 -10 -55 -10
-30 0 -55 5 -55 10 0 6 -7 10 -15 10 -8 0 -15 5 -15 10 0 6 -9 10 -20 10 -11
0 -20 5 -20 10 0 6 -9 10 -20 10 -11 0 -20 5 -20 10 0 6 -9 10 -20 10 -11 0
-20 3 -20 8 0 4 -25 20 -55 37 -30 16 -55 33 -55 37 0 4 -9 8 -20 8 -11 0 -20
5 -20 10 0 6 -9 10 -20 10 -11 0 -20 5 -20 10 0 6 -7 10 -15 10 -8 0 -15 4
-15 8 0 5 -12 15 -27 23 -28 14 -43 24 -68 47 -7 6 -20 12 -27 12 -8 0 -20 9
-28 20 -8 11 -18 20 -23 20 -5 0 -15 6 -23 14 -16 17 -20 155 -5 172 5 5 12
43 15 84 12 150 27 267 53 422 l17 96 116 5 c63 3 140 10 170 15 l54 9 47 -46
c64 -63 87 -81 103 -81 8 0 16 -5 18 -12 3 -7 37 -13 91 -16 95 -5 166 13 198
50 9 10 19 18 23 18 12 0 53 46 69 76 32 62 50 74 111 74 31 0 56 5 56 10 0 6
20 10 45 10 41 0 45 -2 45 -24z m-2650 -55 c47 -6 94 -14 105 -17 11 -3 81
-10 155 -15 171 -10 210 -17 210 -36 0 -8 25 -39 55 -68 30 -30 55 -60 55 -66
0 -6 18 -28 40 -49 37 -35 54 -80 30 -80 -5 0 -10 -25 -10 -55 0 -30 5 -55 10
-55 6 0 10 -10 10 -22 1 -23 21 -58 34 -58 4 0 16 -9 28 -20 12 -11 28 -20 35
-20 7 0 13 -4 13 -10 0 -6 36 -10 89 -10 101 0 121 -8 179 -68 22 -23 48 -42
56 -42 14 0 16 -35 16 -319 l0 -320 -42 -3 c-72 -5 -298 20 -298 33 0 5 -18 9
-40 9 -22 0 -40 5 -40 10 0 6 -15 10 -34 10 -19 0 -38 5 -41 10 -3 6 -21 10
-40 10 -19 0 -37 5 -40 10 -3 6 -13 10 -21 10 -21 0 -214 92 -214 102 0 4 -11
8 -25 8 -14 0 -25 3 -25 8 0 4 -23 18 -50 31 -28 14 -50 28 -50 31 0 4 -16 15
-35 26 -19 10 -35 22 -35 26 0 5 -7 8 -17 8 -18 0 -153 134 -153 152 0 6 -8
18 -18 27 -9 9 -29 39 -42 66 -14 28 -28 52 -32 53 -5 2 -8 10 -8 19 0 8 -6
29 -14 46 -36 80 -72 465 -47 490 6 6 11 36 11 67 0 31 6 64 14 76 15 21 17
21 226 -5z m1196 -88 c-4 -21 -11 -63 -16 -93 -5 -30 -14 -95 -19 -145 -6 -49
-15 -108 -20 -130 -6 -22 -11 -55 -11 -72 0 -18 -3 -33 -6 -33 -9 0 -48 22
-61 36 -15 15 -18 94 -3 94 14 0 12 58 -4 104 -16 47 -61 106 -81 106 -8 0
-15 5 -15 10 0 6 -9 10 -20 10 -11 0 -20 5 -20 10 0 6 -28 10 -65 10 -37 0
-65 -4 -65 -10 0 -5 -7 -10 -17 -10 -21 0 -133 113 -133 134 0 14 32 16 281
16 l281 0 -6 -37z m272 -883 c12 -11 27 -20 34 -20 8 0 20 -9 28 -20 8 -11 18
-20 22 -20 12 0 91 -52 109 -72 9 -10 24 -18 33 -18 9 0 16 -4 16 -10 0 -5 9
-10 20 -10 11 0 20 -4 20 -10 0 -5 7 -10 15 -10 8 0 15 -4 15 -10 0 -5 7 -10
16 -10 22 0 44 -25 44 -49 0 -18 -6 -21 -40 -21 -22 0 -40 -4 -40 -10 0 -5
-20 -10 -45 -10 -25 0 -45 -4 -45 -10 0 -5 -20 -10 -45 -10 -25 0 -45 -4 -45
-10 0 -5 -21 -10 -47 -10 -26 0 -61 -5 -79 -12 -27 -9 -35 -9 -48 5 -13 13
-16 43 -16 177 0 165 5 189 41 190 8 0 25 -9 37 -20z m792 -460 c0 -5 11 -10
25 -10 14 0 25 -4 25 -10 0 -5 9 -10 20 -10 11 0 20 -4 20 -10 0 -5 9 -10 19
-10 11 0 23 -4 26 -10 3 -5 13 -10 21 -10 8 0 37 -11 66 -25 28 -14 60 -25 70
-25 10 0 18 -4 18 -10 0 -5 9 -10 20 -10 11 0 20 -4 20 -10 0 -5 14 -10 30
-10 17 0 30 -4 30 -10 0 -5 16 -10 35 -10 19 0 35 -4 35 -10 0 -5 15 -10 33
-10 18 0 37 -4 43 -9 24 -23 248 -71 362 -78 45 -2 82 -8 82 -13 0 -5 37 -10
82 -12 107 -4 114 -21 25 -61 -34 -15 -70 -27 -79 -27 -10 0 -18 -4 -18 -10 0
-5 -9 -10 -20 -10 -11 0 -20 -4 -20 -10 0 -5 -13 -10 -30 -10 -16 0 -30 -4
-30 -10 0 -5 -16 -10 -35 -10 -19 0 -35 -4 -35 -10 0 -5 -15 -10 -34 -10 -19
0 -37 -4 -40 -8 -3 -5 -33 -16 -68 -26 -35 -9 -77 -22 -94 -27 -17 -5 -47 -9
-67 -9 -20 0 -37 -4 -37 -10 0 -6 -28 -10 -64 -10 -36 0 -68 -4 -71 -10 -3 -5
-37 -10 -76 -10 -39 0 -69 -4 -69 -10 0 -6 -88 -10 -244 -10 -153 0 -247 4
-251 10 -3 6 -28 10 -56 10 -59 0 -64 15 -19 63 16 18 30 35 30 39 0 4 11 18
25 32 14 14 25 30 25 36 0 5 5 10 10 10 6 0 10 7 10 15 0 8 5 15 10 15 6 0 10
7 10 15 0 8 5 15 10 15 6 0 10 9 10 19 0 11 3 21 8 23 10 4 62 86 62 98 0 5 5
10 10 10 6 0 10 9 10 20 0 11 5 20 10 20 6 0 10 9 10 20 0 11 3 20 8 20 4 0
20 29 37 65 16 36 35 65 42 65 7 0 13 -4 13 -10z m-208 -75 c-2 -11 -8 -21
-13 -23 -5 -2 -9 -12 -9 -23 0 -10 -4 -19 -10 -19 -5 0 -10 -9 -10 -20 0 -11
-4 -20 -10 -20 -5 0 -10 -9 -10 -20 0 -11 -4 -20 -10 -20 -5 0 -10 -7 -10 -15
0 -8 -4 -15 -9 -15 -5 0 -14 -13 -21 -30 -7 -16 -16 -30 -21 -30 -4 0 -10 -8
-14 -19 -3 -10 -19 -33 -35 -50 -17 -17 -30 -35 -30 -41 0 -6 -28 -37 -62 -70
-59 -57 -64 -60 -112 -60 -50 0 -112 17 -131 35 -32 31 -75 168 -102 323 -5
31 -4 32 31 32 20 0 36 5 36 10 0 6 28 10 64 10 36 0 67 4 70 9 3 5 32 11 63
14 32 3 90 13 128 22 39 9 85 19 103 22 18 3 35 9 38 15 3 5 25 8 47 6 36 -3
41 -6 39 -23z m-1357 -16 c22 -4 56 -13 75 -19 19 -5 49 -10 67 -10 17 0 35
-4 38 -10 3 -5 33 -10 66 -10 33 0 59 -4 59 -10 0 -6 31 -10 74 -10 80 0 86
-4 86 -71 0 -14 3 -29 7 -33 12 -12 33 -80 33 -108 0 -25 -3 -28 -35 -28 -19
0 -35 5 -35 10 0 6 -7 10 -15 10 -8 0 -38 11 -67 25 -28 14 -59 25 -68 25 -8
0 -22 9 -30 20 -8 11 -22 20 -32 20 -10 0 -18 5 -18 10 0 6 -11 10 -25 10 -14
0 -25 5 -25 10 0 6 -6 10 -13 10 -7 0 -23 9 -34 19 -11 11 -44 32 -72 47 -28
16 -51 32 -51 36 0 4 -7 8 -16 8 -22 0 -44 25 -44 50 0 17 4 20 18 15 9 -4 35
-11 57 -16z"/>
<path d="M180 6240 c0 -5 -9 -10 -20 -10 -11 0 -20 -4 -20 -10 0 -5 -5 -10
-11 -10 -12 0 -25 -13 -57 -57 -15 -22 -22 -47 -22 -78 0 -42 5 -51 49 -96 26
-27 55 -49 62 -49 8 0 21 -9 29 -20 8 -11 22 -20 32 -20 10 0 18 -4 18 -10 0
-5 7 -10 15 -10 8 0 15 -4 15 -10 0 -5 9 -10 19 -10 11 0 21 -3 23 -8 4 -11
145 -102 158 -102 5 0 10 -4 10 -10 0 -5 9 -10 20 -10 11 0 20 -4 20 -10 0 -5
7 -10 15 -10 8 0 15 -4 15 -9 0 -5 14 -14 30 -21 17 -7 30 -16 30 -20 0 -4 18
-15 40 -25 22 -10 40 -22 40 -27 0 -4 7 -8 15 -8 8 0 15 -4 15 -10 0 -5 9 -10
20 -10 11 0 20 -4 20 -9 0 -5 14 -14 30 -21 17 -7 30 -15 30 -19 0 -4 25 -20
55 -36 30 -17 55 -33 55 -37 0 -5 9 -8 20 -8 11 0 20 -4 20 -10 0 -5 7 -10 15
-10 8 0 15 -4 15 -10 0 -5 7 -10 15 -10 8 0 15 -4 15 -10 0 -5 9 -10 19 -10
11 0 23 -4 26 -10 19 -30 175 17 175 53 0 9 5 17 10 17 6 0 10 9 10 19 0 11 5
23 10 26 6 3 10 24 10 46 0 21 -4 39 -10 39 -5 0 -10 9 -10 20 0 11 -4 20 -10
20 -5 0 -10 5 -10 11 0 15 -47 56 -82 72 -16 6 -28 15 -28 19 0 5 -8 8 -18 8
-10 0 -24 9 -32 20 -8 11 -22 20 -32 20 -10 0 -18 5 -18 10 0 6 -7 10 -15 10
-8 0 -15 5 -15 10 0 6 -6 10 -12 10 -7 0 -26 11 -42 25 -15 13 -41 30 -57 37
-16 7 -29 16 -29 20 0 5 -7 8 -15 8 -8 0 -15 5 -15 10 0 6 -9 10 -20 10 -11 0
-20 4 -20 8 0 5 -25 22 -56 38 -31 16 -62 37 -68 47 -6 9 -19 17 -28 17 -10 0
-18 5 -18 10 0 6 -9 10 -20 10 -11 0 -20 5 -20 10 0 6 -7 10 -15 10 -8 0 -15
5 -15 10 0 6 -7 10 -16 10 -9 0 -24 8 -33 18 -9 11 -32 27 -52 36 -20 9 -46
26 -57 36 -12 11 -28 20 -37 20 -8 0 -15 5 -15 10 0 6 -9 10 -20 10 -11 0 -20
5 -20 10 0 6 -9 10 -19 10 -11 0 -23 5 -26 10 -3 6 -24 10 -46 10 -21 0 -39
-4 -39 -10z"/>
<path d="M8180 6240 c-8 -5 -25 -10 -37 -10 -13 0 -23 -4 -23 -10 0 -5 -8 -10
-18 -10 -10 0 -24 -9 -32 -20 -8 -11 -22 -20 -32 -20 -10 0 -18 -4 -18 -8 0
-5 -24 -22 -52 -37 -29 -16 -62 -37 -72 -47 -11 -10 -26 -18 -33 -18 -7 0 -13
-4 -13 -10 0 -5 -9 -10 -20 -10 -11 0 -20 -4 -20 -10 0 -5 -5 -10 -10 -10 -6
0 -16 -5 -23 -10 -25 -21 -88 -60 -97 -60 -6 0 -10 -4 -10 -10 0 -5 -6 -10
-13 -10 -7 0 -23 -9 -35 -20 -12 -11 -28 -20 -37 -20 -8 0 -15 -4 -15 -10 0
-5 -7 -10 -15 -10 -8 0 -15 -3 -15 -7 0 -5 -18 -17 -40 -27 -22 -11 -40 -23
-40 -28 0 -4 -6 -8 -13 -8 -7 0 -23 -9 -35 -20 -12 -11 -26 -20 -32 -20 -5 0
-10 -4 -10 -10 0 -5 -9 -10 -20 -10 -11 0 -20 -4 -20 -10 0 -5 -8 -10 -18 -10
-10 0 -24 -9 -32 -20 -8 -11 -19 -20 -25 -20 -5 0 -29 -17 -53 -39 l-42 -39 0
-76 c0 -68 3 -80 24 -101 34 -34 92 -65 121 -65 32 0 105 23 105 32 0 5 7 8
15 8 8 0 15 5 15 10 0 6 8 10 18 10 10 0 24 9 32 20 8 11 22 20 32 20 10 0 18
4 18 8 0 4 25 21 55 37 30 17 55 33 55 38 0 4 9 7 20 7 11 0 20 5 20 10 0 6 7
10 15 10 8 0 15 5 15 10 0 6 7 10 16 10 9 0 24 8 33 18 9 10 40 31 69 47 28
15 52 32 52 37 0 4 9 8 20 8 11 0 20 5 20 10 0 6 8 10 18 10 10 0 24 9 32 20
8 11 18 20 22 20 11 0 92 53 96 63 2 4 12 7 23 7 10 0 19 5 19 10 0 6 7 10 15
10 8 0 15 5 15 10 0 6 8 10 18 10 10 0 24 9 32 20 8 11 20 20 27 20 7 0 21 6
30 14 10 8 33 27 51 41 17 15 32 33 32 41 0 8 5 14 10 14 6 0 10 28 10 65 0
37 -4 65 -10 65 -5 0 -10 9 -10 20 0 11 -5 20 -11 20 -7 0 -19 8 -28 18 -31
33 -111 52 -141 32z"/>
</g>
</svg>
