<?xml version="1.0" standalone="no"?>
<!DOCTYPE svg PUBLIC "-//W3C//DTD SVG 20010904//EN"
 "http://www.w3.org/TR/2001/REC-SVG-20010904/DTD/svg10.dtd">
<svg version="1.0" xmlns="http://www.w3.org/2000/svg"
 width="800.000000pt" height="800.000000pt" viewBox="0 0 800.000000 800.000000"
 preserveAspectRatio="xMidYMid meet">

<g transform="translate(0.000000,800.000000) scale(0.100000,-0.100000)"
fill="#000000" stroke="none">
<path d="M4664 5855 c0 -82 2 -115 3 -72 2 43 2 110 0 150 -1 40 -3 5 -3 -78z"/>
<path d="M4358 5693 c39 -2 105 -2 145 0 39 1 7 3 -73 3 -80 0 -112 -2 -72 -3z"/>
<path d="M4742 5693 c37 -2 100 -2 140 0 40 1 10 3 -67 3 -77 0 -110 -1 -73
-3z"/>
<path d="M4660 5466 l0 -145 -47 -4 -48 -3 53 -2 52 -2 0 150 c0 83 -2 150 -5
150 -3 0 -5 -65 -5 -144z"/>
<path d="M3982 5333 l2 -168 3 163 3 162 45 0 45 0 3 -162 3 -163 2 168 2 167
-55 0 -55 0 2 -167z"/>
<path d="M4890 5255 l0 -105 -95 0 -95 0 0 -40 0 -40 95 0 95 0 0 -105 0 -105
45 0 45 0 0 105 0 105 95 0 95 0 0 40 0 40 -95 0 -95 0 0 105 0 105 -45 0 -45
0 0 -105z"/>
<path d="M3743 5153 c42 -2 112 -2 155 0 42 1 7 3 -78 3 -85 0 -120 -2 -77 -3z"/>
<path d="M4173 5153 c42 -2 112 -2 155 0 42 1 7 3 -78 3 -85 0 -120 -2 -77 -3z"/>
<path d="M4391 5064 c0 -11 3 -14 6 -6 3 7 2 16 -1 19 -3 4 -6 -2 -5 -13z"/>
<path d="M4084 4880 c0 -96 2 -136 3 -87 2 48 2 126 0 175 -1 48 -3 8 -3 -88z"/>
<path d="M3984 4875 c0 -93 2 -133 3 -88 2 45 2 122 0 170 -1 48 -3 12 -3 -82z"/>
<path d="M3390 4765 l0 -155 -140 0 -140 0 0 -45 0 -45 140 0 140 0 0 -150 0
-150 55 0 55 0 0 150 0 150 140 0 140 0 0 45 0 45 -140 0 -140 0 0 155 0 155
-55 0 -55 0 0 -155z"/>
<path d="M4570 4765 l0 -155 -140 0 -140 0 0 -45 0 -45 140 0 140 0 0 -150 0
-150 50 0 50 0 0 150 0 150 145 0 145 0 0 45 0 44 -142 3 -143 3 -3 153 -3
152 -49 0 -50 0 0 -155z"/>
<path d="M3990 4375 l0 -105 -95 0 -95 0 0 -35 0 -35 95 0 95 0 0 -110 0 -110
45 0 45 0 0 110 0 110 95 0 95 0 0 35 0 35 -95 0 -95 0 0 105 0 105 -45 0 -45
0 0 -105z"/>
<path d="M3957 3574 c-4 -4 -7 -320 -7 -701 l0 -694 78 3 77 3 0 695 0 695
-70 3 c-39 1 -74 0 -78 -4z"/>
<path d="M2872 2898 l3 -532 60 -20 c48 -16 89 -20 205 -20 130 -1 151 2 205
23 156 63 240 239 205 430 -34 186 -158 293 -340 293 -41 0 -99 -7 -129 -16
-30 -9 -56 -16 -58 -16 -2 0 -3 88 -3 195 l0 195 -75 0 -75 0 2 -532z m430 -4
c58 -41 82 -92 86 -186 5 -106 -24 -173 -94 -214 -44 -26 -58 -29 -134 -28
-47 0 -97 5 -113 12 l-27 12 2 202 3 203 50 18 c76 26 174 18 227 -19z"/>
<path d="M770 3155 l0 -225 -210 0 -210 0 0 -70 0 -70 210 0 210 0 0 -240 0
-241 78 3 77 3 3 238 2 237 210 0 210 0 0 70 0 70 -211 2 -210 3 -2 220 -2
220 -77 3 -78 3 0 -226z"/>
<path d="M1967 3070 c-163 -28 -268 -151 -283 -333 -16 -184 64 -329 215 -389
50 -20 73 -23 206 -22 123 0 160 4 205 20 l55 19 3 358 2 357 -75 0 c-74 0
-75 0 -75 -26 0 -21 -3 -25 -17 -19 -84 36 -162 47 -236 35z m199 -164 l51
-24 -5 -198 c-2 -110 -8 -203 -12 -208 -5 -4 -46 -10 -93 -13 -76 -5 -90 -3
-140 20 -94 43 -136 141 -116 267 24 149 172 223 315 156z"/>
<path d="M5893 3070 c-111 -17 -198 -82 -249 -186 -27 -56 -29 -66 -29 -185 0
-124 0 -127 35 -195 40 -78 97 -128 183 -160 73 -27 292 -27 390 0 l67 18 0
328 c0 180 3 342 6 359 l7 31 -82 0 c-80 0 -81 0 -81 -25 0 -24 -14 -34 -24
-16 -15 23 -149 42 -223 31z m209 -167 l33 -19 3 -199 c1 -109 -1 -202 -6
-207 -15 -15 -164 -21 -212 -8 -57 15 -124 80 -139 135 -36 132 10 258 114
307 52 24 158 20 207 -9z"/>
<path d="M4775 3056 c-87 -27 -154 -84 -195 -166 -76 -151 -59 -340 41 -454
47 -54 138 -101 224 -117 79 -15 205 -5 283 21 l62 22 0 74 c0 68 -1 74 -18
65 -41 -22 -148 -42 -226 -42 -90 0 -142 15 -185 54 -29 27 -60 93 -61 127 l0
25 266 -3 267 -3 -5 78 c-14 211 -138 334 -336 332 -42 0 -95 -6 -117 -13z
m198 -140 c45 -19 77 -57 84 -100 l6 -36 -177 0 c-130 0 -176 3 -176 12 0 28
55 89 103 113 57 28 111 32 160 11z"/>
<path d="M7563 3055 c-37 -16 -53 -42 -53 -85 0 -43 47 -90 90 -90 43 0 90 47
90 90 0 44 -16 69 -55 86 -40 16 -32 17 -72 -1z m76 -15 c48 -25 47 -103 -2
-135 -73 -47 -149 63 -87 125 21 21 60 26 89 10z"/>
<path d="M7583 3023 c-9 -3 -13 -23 -12 -56 1 -29 4 -42 6 -29 5 27 33 29 40
2 9 -35 19 -21 18 27 -1 47 -20 67 -52 56z m37 -28 c0 -8 -9 -15 -20 -15 -11
0 -20 7 -20 15 0 8 9 15 20 15 11 0 20 -7 20 -15z"/>
<path d="M6700 2788 c0 -309 3 -323 77 -389 58 -52 128 -74 243 -74 124 0 188
22 250 84 66 67 70 87 70 390 l0 261 -77 0 -78 0 0 -258 c0 -286 -3 -303 -68
-342 -48 -29 -153 -28 -198 3 -61 41 -64 55 -67 340 l-3 257 -74 0 -75 0 0
-272z"/>
</g>
</svg>
