<?xml version="1.0" standalone="no"?>
<!DOCTYPE svg PUBLIC "-//W3C//DTD SVG 20010904//EN"
 "http://www.w3.org/TR/2001/REC-SVG-20010904/DTD/svg10.dtd">
<svg version="1.0" xmlns="http://www.w3.org/2000/svg"
 width="225.000000pt" height="225.000000pt" viewBox="0 0 225.000000 225.000000"
 preserveAspectRatio="xMidYMid meet">

<g transform="translate(0.000000,225.000000) scale(0.100000,-0.100000)"
fill="#000000" stroke="none">
<path d="M988 1770 c-155 -12 -292 -51 -327 -94 -81 -98 296 -184 634 -146
181 21 305 67 305 113 0 12 -4 27 -8 33 -12 19 -84 51 -153 68 -59 15 -282 38
-334 34 -11 0 -64 -4 -117 -8z"/>
<path d="M650 1511 c0 -49 2 -51 38 -69 186 -94 682 -94 879 0 25 12 28 19 31
67 3 44 1 52 -10 44 -56 -44 -271 -83 -459 -83 -190 0 -416 40 -466 82 -10 8
-13 -1 -13 -41z"/>
<path d="M650 1357 c0 -52 8 -60 85 -87 106 -37 263 -53 445 -47 173 6 267 21
363 57 l57 21 0 51 c0 44 -2 49 -17 43 -129 -52 -269 -75 -463 -75 -190 0
-325 22 -452 75 -16 6 -18 1 -18 -38z"/>
<path d="M650 1201 c0 -48 0 -49 48 -69 100 -43 203 -57 427 -57 224 0 327 14
428 57 47 20 47 21 47 69 0 27 -2 49 -5 49 -4 0 -19 -7 -35 -15 -16 -8 -69
-25 -117 -37 -78 -20 -113 -23 -318 -23 -205 0 -240 3 -318 23 -48 12 -101 29
-117 37 -16 8 -31 15 -35 15 -3 0 -5 -22 -5 -49z"/>
<path d="M650 1052 l0 -50 50 -21 c105 -45 190 -56 430 -56 240 1 314 10 419
55 l51 22 0 50 c0 44 -2 49 -17 43 -142 -59 -237 -75 -458 -75 -221 0 -316 16
-457 75 -16 6 -18 1 -18 -43z"/>
<path d="M708 834 c-34 -18 -48 -43 -48 -84 0 -46 34 -74 118 -95 80 -19 100
-38 77 -72 -8 -12 -26 -24 -40 -27 -33 -8 -95 18 -102 44 -6 24 -63 29 -63 5
0 -55 67 -105 140 -105 77 0 130 43 130 106 0 35 -5 47 -30 67 -16 14 -52 30
-80 36 -71 15 -92 28 -88 54 6 44 87 48 128 7 40 -40 76 -18 50 31 -25 46
-134 65 -192 33z"/>
<path d="M1065 832 c-64 -41 -93 -106 -81 -185 17 -109 122 -175 220 -138 19
8 30 6 51 -11 25 -19 27 -20 46 -2 19 17 19 18 -1 39 -19 20 -19 24 -5 58 33
79 8 188 -52 232 -40 28 -138 32 -178 7z m134 -48 c45 -32 67 -129 37 -169
-12 -16 -16 -17 -30 -6 -14 12 -19 11 -36 -4 -14 -13 -17 -22 -10 -29 16 -16
12 -26 -10 -26 -97 0 -143 148 -70 222 33 33 82 37 119 12z"/>
<path d="M1381 680 l-1 -170 110 0 110 0 0 25 c0 23 -3 24 -77 27 l-78 3 -3
143 -3 142 -28 0 -29 0 -1 -170z"/>
</g>
</svg>
