<?xml version="1.0" standalone="no"?>
<!DOCTYPE svg PUBLIC "-//W3C//DTD SVG 20010904//EN"
 "http://www.w3.org/TR/2001/REC-SVG-20010904/DTD/svg10.dtd">
<svg version="1.0" xmlns="http://www.w3.org/2000/svg"
 width="305.000000pt" height="165.000000pt" viewBox="0 0 305.000000 165.000000"
 preserveAspectRatio="xMidYMid meet">

<g transform="translate(0.000000,165.000000) scale(0.100000,-0.100000)"
fill="#000000" stroke="none">
<path d="M798 1600 c28 -27 42 -58 55 -115 4 -18 5 -17 6 3 2 45 -54 142 -82
142 -4 0 5 -13 21 -30z"/>
<path d="M1028 1523 c12 -2 32 -2 45 0 12 2 2 4 -23 4 -25 0 -35 -2 -22 -4z"/>
<path d="M978 1513 c7 -3 16 -2 19 1 4 3 -2 6 -13 5 -11 0 -14 -3 -6 -6z"/>
<path d="M1125 1506 c61 -26 105 -103 72 -123 -17 -10 -47 -54 -47 -68 0 -5 8
4 18 20 24 39 43 54 89 72 l38 14 -37 -6 c-30 -5 -38 -2 -43 14 -8 27 -81 91
-103 91 -10 -1 -5 -6 13 -14z"/>
<path d="M888 1503 c12 -2 32 -2 45 0 12 2 2 4 -23 4 -25 0 -35 -2 -22 -4z"/>
<path d="M841 1453 c-1 -6 -4 -20 -7 -30 -5 -17 -5 -17 6 0 6 10 9 23 6 30 -3
9 -5 9 -5 0z"/>
<path d="M285 1430 l-30 -8 27 -1 c15 0 30 4 33 9 3 6 5 9 3 9 -2 -1 -16 -5
-33 -9z"/>
<path d="M643 1417 c-9 -15 13 -29 43 -25 15 2 29 8 31 14 5 14 -66 24 -74 11z"/>
<path d="M2530 1421 c0 -5 10 -13 22 -17 21 -6 21 -7 3 -20 -17 -13 -16 -14
17 -14 28 0 42 -7 57 -27 24 -29 39 -26 22 5 -7 13 -7 22 -1 24 6 2 -6 16 -25
31 -19 15 -35 23 -35 18 0 -7 -9 -7 -26 -1 -31 12 -34 12 -34 1z"/>
<path d="M1323 1413 c9 -2 23 -2 30 0 6 3 -1 5 -18 5 -16 0 -22 -2 -12 -5z"/>
<path d="M930 1400 c-30 -5 -76 -10 -103 -11 -27 -2 -53 -9 -60 -17 -10 -13
-1 -14 78 -7 50 5 106 9 125 9 35 1 35 0 37 -44 2 -25 5 -64 8 -86 l6 -41 75
-5 c41 -3 77 -8 81 -11 12 -12 -23 -565 -36 -581 -10 -12 -11 -19 -2 -30 8
-10 9 -55 4 -162 l-8 -149 -70 -12 c-134 -23 -348 -27 -505 -9 -79 10 -146 19
-148 21 -3 2 -9 94 -15 204 -8 155 -14 201 -24 201 -9 0 -13 -13 -13 -40 0
-35 -4 -43 -39 -66 -37 -24 -41 -25 -63 -10 -30 21 -41 20 -35 -4 4 -15 0 -20
-14 -20 -20 0 -26 -15 -9 -25 5 -3 7 -12 4 -19 -3 -9 5 -16 21 -20 23 -6 35 0
76 39 26 25 53 45 59 45 6 0 10 -24 10 -57 0 -32 3 -102 7 -155 l6 -96 86 -13
c47 -6 122 -15 166 -18 l80 -6 3 -58 3 -57 -54 0 c-52 0 -77 -12 -77 -37 0 -9
18 -13 64 -13 96 0 96 0 96 86 0 72 1 74 25 74 24 0 25 -2 25 -74 0 -86 0 -86
96 -86 57 0 64 2 64 20 0 23 -33 34 -85 28 l-35 -4 0 63 0 63 53 0 c48 0 257
26 263 33 2 2 6 71 10 155 4 84 10 152 15 152 4 0 28 -20 54 -45 37 -37 51
-44 71 -39 16 4 23 12 20 20 -3 7 -1 16 4 19 17 11 11 25 -11 25 -17 0 -19 3
-10 14 18 22 -5 29 -33 11 -23 -15 -27 -15 -60 7 -31 20 -36 28 -36 63 0 46
17 370 25 491 l6 80 -92 105 c-57 65 -100 105 -113 105 -12 1 -46 -2 -76 -6z
m217 -176 c-1 -1 -26 1 -54 3 l-53 6 0 42 c0 24 -3 52 -6 62 -3 10 22 -11 55
-46 33 -36 59 -66 58 -67z"/>
<path d="M470 1371 c0 -13 38 -21 104 -21 55 0 58 1 40 15 -21 16 -144 21
-144 6z"/>
<path d="M2780 1345 c19 -19 36 -35 39 -35 3 0 -10 16 -29 35 -19 19 -36 35
-39 35 -3 0 10 -16 29 -35z"/>
<path d="M355 1360 c-3 -5 -13 -6 -22 -3 -11 4 -14 3 -9 -5 10 -17 -45 -62
-69 -57 -11 3 -14 2 -7 -1 9 -4 10 -9 2 -19 -7 -8 -7 -16 -2 -19 6 -3 17 5 26
19 9 14 21 25 27 25 6 0 20 12 31 26 16 19 23 22 29 13 4 -8 12 -10 16 -5 4 5
2 11 -6 14 -11 4 -11 6 0 13 9 6 10 9 2 9 -6 0 -14 -4 -18 -10z"/>
<path d="M122 1300 c0 -14 2 -19 5 -12 2 6 2 18 0 25 -3 6 -5 1 -5 -13z"/>
<path d="M330 1310 c0 -5 5 -10 10 -10 6 0 10 5 10 10 0 6 -4 10 -10 10 -5 0
-10 -4 -10 -10z"/>
<path d="M290 1270 c0 -5 5 -10 10 -10 6 0 10 5 10 10 0 6 -4 10 -10 10 -5 0
-10 -4 -10 -10z"/>
<path d="M130 1263 c0 -6 9 -22 20 -36 11 -14 20 -33 20 -44 0 -15 2 -16 10
-3 10 15 12 11 13 -25 0 -17 1 -18 4 -2 4 15 11 17 36 12 28 -6 27 -4 -13 17
-25 13 -55 38 -67 57 -13 19 -23 29 -23 24z"/>
<path d="M2654 1200 c-58 -29 -60 -29 -101 -13 -59 22 -172 14 -235 -18 l-48
-23 -22 21 c-65 59 -144 59 -230 0 -22 -15 -32 -16 -49 -6 -34 17 -128 27
-173 17 -62 -14 -141 -70 -172 -124 -21 -35 -28 -63 -32 -119 -5 -86 6 -127
53 -189 l35 -45 -28 9 c-66 20 -82 30 -82 52 0 13 -4 30 -10 38 -7 11 -11 8
-20 -15 -6 -17 -21 -40 -32 -52 l-21 -23 29 0 c16 0 65 -11 109 -25 95 -30 96
-30 88 -9 -5 14 -3 15 18 3 13 -7 54 -13 90 -13 115 0 214 65 262 173 24 53
28 162 9 198 -11 20 -9 24 17 38 37 18 80 20 87 2 2 -7 -2 -29 -10 -48 -26
-62 -30 -131 -11 -195 13 -47 27 -69 69 -110 61 -60 118 -80 202 -71 164 17
282 155 271 317 -2 36 -7 73 -11 82 -9 20 37 48 78 48 27 0 56 -33 56 -62 0
-24 50 -44 62 -26 17 28 9 114 -14 148 -51 74 -137 89 -234 40z m-93 -139 c38
-38 40 -106 6 -172 -45 -85 -158 -132 -238 -99 -57 24 -75 110 -40 185 18 36
19 38 20 14 1 -34 24 -53 55 -45 26 6 44 38 26 44 -6 2 -16 15 -21 29 -7 19
-14 23 -32 18 -22 -6 -22 -6 -2 11 36 30 79 43 138 44 52 0 62 -3 88 -29z
m-621 4 c98 -51 29 -240 -100 -275 -111 -30 -178 44 -146 164 l7 29 24 -23
c26 -24 52 -24 69 2 8 14 7 20 -8 31 -11 8 -16 19 -12 26 4 6 0 14 -11 18 -14
6 -10 10 22 25 49 22 116 23 155 3z"/>
<path d="M643 1193 c9 -2 25 -2 35 0 9 3 1 5 -18 5 -19 0 -27 -2 -17 -5z"/>
<path d="M706 1177 c3 -10 9 -15 12 -12 3 3 0 11 -7 18 -10 9 -11 8 -5 -6z"/>
<path d="M770 1171 c-5 -11 -9 -32 -9 -48 1 -25 2 -25 8 7 4 20 11 41 15 48 4
7 5 12 2 12 -3 0 -10 -9 -16 -19z"/>
<path d="M892 1165 c9 -11 21 -31 27 -45 7 -17 10 -20 10 -8 1 10 -11 30 -26
46 -16 15 -20 19 -11 7z"/>
<path d="M335 1104 c5 -59 4 -79 -7 -85 -10 -6 -10 -9 0 -9 6 0 12 -11 12 -25
0 -16 6 -25 16 -25 14 0 15 7 10 38 -3 20 -6 70 -6 110 0 60 -3 72 -16 72 -14
0 -15 -10 -9 -76z"/>
<path d="M161 1144 c0 -11 3 -14 6 -6 3 7 2 16 -1 19 -3 4 -6 -2 -5 -13z"/>
<path d="M825 1139 c-10 -30 18 -58 40 -39 22 18 15 54 -12 58 -15 2 -23 -3
-28 -19z m45 1 c0 -5 -7 -10 -15 -10 -8 0 -15 5 -15 10 0 6 7 10 15 10 8 0 15
-4 15 -10z"/>
<path d="M565 1139 c-4 -6 -5 -12 -2 -15 2 -3 7 2 10 11 7 17 1 20 -8 4z"/>
<path d="M654 1136 c-10 -26 0 -51 21 -51 16 0 20 7 20 30 0 33 -30 49 -41 21z
m36 -4 c0 -13 -12 -22 -22 -16 -10 6 -1 24 13 24 5 0 9 -4 9 -8z"/>
<path d="M181 1094 c0 -11 3 -14 6 -6 3 7 2 16 -1 19 -3 4 -6 -2 -5 -13z"/>
<path d="M551 1084 c0 -11 3 -14 6 -6 3 7 2 16 -1 19 -3 4 -6 -2 -5 -13z"/>
<path d="M86 984 c-32 -58 -60 -115 -63 -127 -2 -12 3 -7 12 12 8 19 38 74 66
123 29 49 50 90 48 92 -2 2 -30 -43 -63 -100z"/>
<path d="M190 1061 c0 -20 39 -51 63 -50 l22 2 -22 4 c-13 2 -32 16 -43 30
-11 14 -20 21 -20 14z"/>
<path d="M560 1053 c0 -5 10 -18 23 -29 l22 -19 -20 25 c-11 14 -21 27 -22 29
-2 2 -3 0 -3 -6z"/>
<path d="M921 1048 c-1 -9 -8 -24 -17 -32 -8 -9 -11 -16 -5 -16 14 0 34 38 27
53 -2 7 -5 5 -5 -5z"/>
<path d="M669 1023 c-13 -16 -12 -17 4 -4 9 7 17 15 17 17 0 8 -8 3 -21 -13z"/>
<path d="M816 1015 c10 -8 23 -15 28 -15 6 0 1 7 -10 15 -10 8 -23 15 -28 15
-6 0 -1 -7 10 -15z"/>
<path d="M618 1003 c6 -2 18 -2 25 0 6 3 1 5 -13 5 -14 0 -19 -2 -12 -5z"/>
<path d="M1388 903 c6 -2 18 -2 25 0 6 3 1 5 -13 5 -14 0 -19 -2 -12 -5z"/>
<path d="M510 877 c0 -24 21 -34 102 -51 88 -18 232 -21 328 -6 103 16 110 19
110 40 0 11 -2 20 -3 20 -2 0 -48 -7 -103 -15 -126 -19 -220 -19 -309 1 -38 8
-82 17 -97 21 -21 4 -28 2 -28 -10z"/>
<path d="M313 873 c9 -2 23 -2 30 0 6 3 -1 5 -18 5 -16 0 -22 -2 -12 -5z"/>
<path d="M1356 851 c-19 -21 -20 -35 -3 -53 6 -8 17 -23 23 -33 17 -30 54 -25
75 10 21 36 24 69 7 83 -21 16 -85 12 -102 -7z m37 -11 c-3 -10 -11 -24 -19
-31 -19 -15 -31 16 -14 36 18 22 39 19 33 -5z m65 -15 l2 -30 -20 24 c-25 29
-26 44 -2 39 11 -2 18 -14 20 -33z m-28 -45 c13 -9 13 -11 0 -20 -8 -5 -17
-10 -20 -10 -3 0 -12 5 -20 10 -13 9 -13 11 0 20 8 5 17 10 20 10 3 0 12 -5
20 -10z"/>
<path d="M250 833 c0 -6 27 -17 60 -25 47 -11 60 -12 60 -2 0 18 -9 22 -68 30
-32 4 -52 3 -52 -3z"/>
<path d="M12 810 c0 -14 2 -19 5 -12 2 6 2 18 0 25 -3 6 -5 1 -5 -13z"/>
<path d="M236 769 c-9 -45 -8 -49 12 -48 10 0 12 3 4 6 -9 3 -11 16 -6 39 3
19 4 34 1 34 -2 0 -7 -14 -11 -31z"/>
<path d="M20 772 c0 -27 31 -72 60 -87 33 -17 78 -19 100 -5 10 6 3 8 -22 3
-55 -8 -93 12 -117 60 -12 23 -21 36 -21 29z"/>
<path d="M141 764 c0 -11 3 -14 6 -6 3 7 2 16 -1 19 -3 4 -6 -2 -5 -13z"/>
<path d="M332 760 c-7 -12 -8 -20 -2 -20 5 0 10 6 11 13 0 6 4 3 9 -8 8 -17 8
-16 7 8 -2 32 -8 34 -25 7z"/>
<path d="M520 734 c0 -20 9 -25 78 -41 91 -21 295 -23 385 -4 49 11 57 16 57
35 0 23 0 23 -57 9 -90 -22 -302 -19 -390 4 l-73 19 0 -22z"/>
<path d="M295 720 c-3 -5 1 -10 9 -10 9 0 16 5 16 10 0 6 -4 10 -9 10 -6 0
-13 -4 -16 -10z"/>
<path d="M2894 695 c-6 -15 11 -62 27 -75 3 -3 14 -20 23 -38 16 -31 16 -33
-4 -54 -11 -12 -20 -25 -20 -28 0 -15 14 -19 27 -9 10 9 13 6 13 -15 0 -30 14
-34 29 -8 6 9 11 11 11 5 0 -21 25 -15 35 10 9 19 5 28 -25 63 -20 23 -48 67
-64 98 -32 64 -43 74 -52 51z"/>
<path d="M217 659 c7 -7 15 -10 18 -7 3 3 -2 9 -12 12 -14 6 -15 5 -6 -5z"/>
<path d="M532 589 c5 -39 68 -52 253 -53 187 -1 245 11 245 48 0 24 0 24 -47
9 -27 -8 -97 -17 -158 -20 -103 -5 -172 3 -273 33 -21 6 -23 4 -20 -17z"/>
<path d="M540 447 c0 -24 6 -27 78 -43 91 -21 238 -23 335 -5 61 12 67 15 67
38 0 20 -4 24 -17 18 -97 -37 -336 -32 -445 10 -14 6 -18 2 -18 -18z"/>
<path d="M2284 243 c-8 -3 -10 -18 -7 -43 8 -54 -3 -89 -32 -102 -14 -6 -25
-19 -25 -30 0 -27 51 -24 79 6 23 24 23 26 10 99 -9 46 -18 72 -25 70z"/>
<path d="M2394 233 c3 -10 10 -40 16 -68 19 -88 33 -124 47 -130 40 -15 45 45
8 98 -13 20 -29 55 -35 77 -7 24 -17 40 -26 40 -10 0 -14 -6 -10 -17z"/>
</g>
</svg>
